<svg xmlns="http://www.w3.org/2000/svg" xmlns:xlink="http://www.w3.org/1999/xlink" width="94" height="122" viewBox="0 0 94 122">
    <defs>
        <path id="zv2aefv0ma" d="M0 0L94 0 94 122 0 122z"/>
    </defs>
    <g fill="none" fill-rule="evenodd">
        <g>
            <mask id="dvk19yz4ub" fill="#fff">
                <use xlink:href="#zv2aefv0ma"/>
            </mask>
            <use fill="#FFF" fill-opacity="0" xlink:href="#zv2aefv0ma"/>
            <g mask="url(#dvk19yz4ub)">
                <g>
                    <path fill="#2D84E5" d="M7.99 0h28.5c4.413 0 7.99 3.577 7.99 7.99v35.56c0 4.413-3.577 7.99-7.99 7.99H7.99C3.577 51.54 0 47.964 0 43.55V7.99C0 3.577 3.577 0 7.99 0z" transform="translate(0 40)"/>
                    <path fill="#FFEA9B" d="M22.599 43.769c10.158 0 18.394-8.353 18.394-18.657S32.757 6.455 22.599 6.455c-10.16 0-18.395 8.353-18.395 18.657S12.44 43.769 22.6 43.769z" transform="translate(0 40)"/>
                    <path fill="#FFEA9B" d="M14.955 41.667H30.18c2.226.665 6.875 3.594 7.66 9.985H7.885c.982-3.328 3.771-9.985 7.071-9.985z" transform="translate(0 40)"/>
                    <g fill-rule="nonzero">
                        <path fill="#FB99AC" d="M2.07 9.868C.927 9.868 0 9.124 0 8.206c0-.919.927-1.664 2.07-1.664 1.143 0 2.07.745 2.07 1.664 0 .918-.927 1.662-2.07 1.662z" transform="translate(0 40) translate(9.009 22.963)"/>
                        <path fill="#FFF" d="M5.617 8.206c-2.266 0-4.103-1.837-4.103-4.103S3.351 0 5.617 0 9.72 1.837 9.72 4.103 7.883 8.206 5.617 8.206zM22.872 8.206c-2.266 0-4.103-1.837-4.103-4.103S20.606 0 22.872 0s4.103 1.837 4.103 4.103-1.837 4.103-4.103 4.103z" transform="translate(0 40) translate(9.009 22.963)"/>
                        <path fill="#383842" d="M5.617 6.55c-1.352 0-2.447-1.096-2.447-2.447 0-1.35 1.095-2.445 2.447-2.445 1.35-.001 2.446 1.094 2.446 2.445 0 1.351-1.095 2.446-2.446 2.446zM22.873 6.55c-1.351 0-2.446-1.096-2.446-2.447 0-1.35 1.095-2.445 2.446-2.445 1.351-.001 2.446 1.094 2.446 2.445 0 1.351-1.095 2.446-2.446 2.446zM12.21 7.5c-.273-.253-.289-.682-.036-.956.254-.274.681-.29.955-.036.657.61 1.576.61 2.233 0 .273-.252.7-.236.955.036.255.274.237.701-.035.955-.59.548-1.314.82-2.037.82-.722 0-1.444-.274-2.034-.82z" transform="translate(0 40) translate(9.009 22.963)"/>
                    </g>
                    <path fill="#28C38A" d="M51.54 75.546c-.861 0-1.705-.074-2.527-.215h5.055c-.821.141-1.666.215-2.527.215zm0-36.714c8.19 0 14.827 6.638 14.827 14.827v7.06c0 .39-.015.777-.044 1.16H36.768v.119c-.036-.422-.054-.848-.054-1.28v-7.06c0-8.188 6.638-14.826 14.827-14.826z" transform="translate(0 40)"/>
                    <g fill="#75E9BE" fill-rule="nonzero">
                        <path d="M0 1.806C0 .81.456 0 1.017 0c.562 0 1.018.81 1.018 1.806v10.34H0V1.805zM17.227 1.806C17.227.81 16.77 0 16.209 0c-.561 0-1.017.81-1.017 1.806v10.34h2.035V1.805z" transform="translate(0 40) translate(43.096 48.574)"/>
                    </g>
                    <path fill="#28C38A" d="M51.503 43.769c10.159 0 18.394-8.353 18.394-18.657S61.662 6.455 51.503 6.455c-10.159 0-18.394 8.353-18.394 18.657s8.235 18.657 18.394 18.657z" transform="translate(0 40)"/>
                </g>
            </g>
        </g>
    </g>
</svg>
