<svg xmlns="http://www.w3.org/2000/svg" xmlns:xlink="http://www.w3.org/1999/xlink" width="94" height="122" viewBox="0 0 94 122">
    <defs>
        <path id="2u6ypeht4a" d="M0 0L94 0 94 122 0 122z"/>
    </defs>
    <g fill="none" fill-rule="evenodd">
        <g>
            <mask id="5oypgshvhb" fill="#fff">
                <use xlink:href="#2u6ypeht4a"/>
            </mask>
            <use fill="#FFF" fill-opacity="0" xlink:href="#2u6ypeht4a"/>
            <g mask="url(#5oypgshvhb)">
                <g>
                    <path fill="#2D84E5" d="M34.15 0h27.727c4.293 0 7.773 3.48 7.773 7.774v34.595c0 4.293-3.48 7.773-7.773 7.773H34.15c-4.293 0-7.773-3.48-7.773-7.773V7.774C26.377 3.48 29.857 0 34.15 0z" transform="translate(0 40)"/>
                    <g>
                        <path fill="#FFEA9B" d="M17.895 36.301c9.883 0 17.895-8.126 17.895-18.15C35.79 8.126 27.778 0 17.895 0S0 8.126 0 18.15c0 10.025 8.012 18.151 17.895 18.151z" transform="translate(0 40) matrix(-1 0 0 1 66.989 6.28)"/>
                        <path fill="#FFEA9B" d="M10.459 34.256h14.81c2.166.648 6.69 3.497 7.454 9.715H3.579c.956-3.238 3.67-9.715 6.88-9.715z" transform="translate(0 40) matrix(-1 0 0 1 66.989 6.28)"/>
                        <g fill-rule="nonzero">
                            <path fill="#FB99AC" d="M2.014 9.6C.902 9.6 0 8.877 0 7.983c0-.893.902-1.618 2.014-1.618 1.112 0 2.014.725 2.014 1.618 0 .894-.902 1.617-2.014 1.617z" transform="translate(0 40) matrix(-1 0 0 1 66.989 6.28) translate(4.674 16.06)"/>
                            <path fill="#FFF" d="M5.465 7.983c-2.205 0-3.992-1.787-3.992-3.991C1.473 1.787 3.26 0 5.465 0c2.204 0 3.991 1.787 3.991 3.992 0 2.204-1.787 3.991-3.991 3.991zM22.252 7.983c-2.205 0-3.992-1.787-3.992-3.991C18.26 1.787 20.047 0 22.252 0c2.204 0 3.991 1.787 3.991 3.992 0 2.204-1.787 3.991-3.991 3.991z" transform="translate(0 40) matrix(-1 0 0 1 66.989 6.28) translate(4.674 16.06)"/>
                            <path fill="#383842" d="M5.464 6.371c-1.314 0-2.38-1.065-2.38-2.38 0-1.312 1.066-2.378 2.38-2.378 1.315-.001 2.38 1.064 2.38 2.379 0 1.314-1.065 2.38-2.38 2.38zM22.252 6.371c-1.314 0-2.38-1.065-2.38-2.38 0-1.312 1.066-2.378 2.38-2.378 1.315-.001 2.38 1.064 2.38 2.379 0 1.314-1.065 2.38-2.38 2.38zM11.88 7.296c-.267-.246-.282-.663-.037-.93.248-.266.664-.282.93-.034.64.593 1.533.593 2.172 0 .266-.246.682-.23.93.034.247.267.23.682-.035.93-.574.533-1.278.797-1.981.797-.703 0-1.406-.266-1.98-.797z" transform="translate(0 40) matrix(-1 0 0 1 66.989 6.28) translate(4.674 16.06)"/>
                        </g>
                    </g>
                    <g>
                        <path fill="#28C38A" d="M17.931 67.216c-.838 0-1.66-.071-2.46-.209h4.92c-.8.138-1.621.21-2.46.21zm0-35.718c7.967 0 14.425 6.458 14.425 14.425v6.869c0 .38-.015.756-.044 1.128H3.56v.126c-.035-.413-.053-.832-.053-1.254v-6.87c0-7.966 6.458-14.424 14.424-14.424z" transform="translate(0 40) translate(.762 6.28)"/>
                        <g fill="#75E9BE" fill-rule="nonzero">
                            <path d="M0 1.757C0 .787.443 0 .99 0c.546 0 .99.787.99 1.757v10.059H0V1.757zM16.76 1.757c0-.97-.444-1.757-.99-1.757-.547 0-.99.787-.99 1.757v10.059h1.98V1.757z" transform="translate(0 40) translate(.762 6.28) translate(9.716 40.976)"/>
                        </g>
                        <path fill="#28C38A" d="M17.895 36.301c9.883 0 17.895-8.126 17.895-18.15C35.79 8.126 27.778 0 17.895 0S0 8.126 0 18.15c0 10.025 8.012 18.151 17.895 18.151z" transform="translate(0 40) translate(.762 6.28)"/>
                    </g>
                </g>
            </g>
        </g>
    </g>
</svg>
